<svg width="50" height="50" viewBox="0 0 50 50" fill="none" xmlns="http://www.w3.org/2000/svg">
<circle cx="25" cy="25" r="25" fill="#E8E8E8"/>
<path d="M33.07 19.11C31.9817 17.6074 30.4912 16.4427 28.77 15.75C27.2526 15.1324 25.6067 14.897 23.977 15.0646C22.3473 15.2322 20.7837 15.7976 19.4238 16.7111C18.0639 17.6247 16.9492 18.8583 16.1778 20.3037C15.4065 21.749 15.002 23.3617 15 25C15 25.19 15 25.38 15 25.56C15.0873 27.1241 15.543 28.6455 16.33 30C17.6153 32.2558 19.7275 33.9234 22.22 34.65C23.1259 34.8951 24.0616 35.0129 25 35C25.6311 35.0029 26.2609 34.9426 26.88 34.82C28.9226 34.4246 30.7911 33.4019 32.2251 31.8945C33.659 30.387 34.5871 28.4698 34.88 26.41C34.9551 25.9436 34.9953 25.4723 35 25C35.0087 22.8799 34.3317 20.8138 33.07 19.11ZM31.07 19.88L30 22.74L28.38 23.18L26 21.49V19.64L28.49 17.83C29.5004 18.3172 30.394 19.0164 31.11 19.88H31.07ZM27 24.67L26.22 27H23.77L23 24.67L25 23.24L27 24.67ZM25 17C25.3716 17.0042 25.7425 17.0342 26.11 17.09L25 17.89L23.89 17.09C24.2575 17.0342 24.6284 17.0042 25 17ZM17.88 21.37L18.28 22.69L17.15 23.48C17.292 22.7456 17.5378 22.0351 17.88 21.37ZM19.25 30.54L20.63 30.59L21 31.92C20.3574 31.5406 19.7688 31.0764 19.25 30.54ZM21 28.6L17.85 28.49C17.4526 27.7095 17.1889 26.8678 17.07 26L19.56 24.26L21 24.88L21.89 27.64L21 28.6ZM21.86 23.07L20.3 22.37L19.39 19.37C20.0034 18.7435 20.7164 18.2232 21.5 17.83L24 19.64V21.49L21.86 23.07ZM26 32.93C25.1227 33.034 24.2342 32.9935 23.37 32.81L22.54 29.89L23.37 29H26.44L27.11 30L26 32.93ZM28.41 32.23L28.87 31L30.23 31.07C29.6705 31.5412 29.0478 31.9316 28.38 32.23H28.41ZM31.87 29.11L28.76 29L28.05 27.9L28.94 25.14L30.45 24.73L32.81 26.73C32.6198 27.5713 32.2921 28.3754 31.84 29.11H31.87ZM31.92 23.28L32.4 22C32.6816 22.6797 32.8602 23.3976 32.93 24.13L31.92 23.28Z" fill="#231F20"/>
</svg>
